# xmcd
#
# Track frame offsets:
#	150
#	14652
#	30937
#	47019
#	65096
#	80622
#	96970
#	116367
#	132953
#	148022
#	162026
#	180141
#	198128
#
# Disc length: 2904 seconds
#
# Revision: 1
# Processed by: cddbd v1.5PL3 Copyright (c) Steve Scherf et al.
# Submitted via: audiograbber 1.83.01
#
DISCID=a30b560d
DTITLE=Various Artist - Rumanian Pop
DYEAR=1900
DGENRE=Pop 2000
TTITLE0=VOLTAJ_Albinutza
TTITLE1=PROCONSUL_Varvara
TTITLE2=AKCENT_Ultima_Vara
TTITLE3=MB&C_Marea_2000
TTITLE4=HI-Q_E_Vara_Mea
TTITLE5=LABIRINT_Nu_Pleca
TTITLE6=DJ_WAVE_In_Valuri
TTITLE7=KPITAL_Nu_Poti_Sa_Stai_Deoparte
TTITLE8=VAN_NOIZZ_Spune-Mi_Ceva
TTITLE9=ROSSETTI_Poveste_de_Vara
TTITLE10=VIP_T_Vreau
TTITLE11=HI-Q_Te_Vara_Mea_[remix]
TTITLE12=VOLTAJ_Albinutza_[remix]
EXTD=
EXTT0=
EXTT1=
EXTT2=
EXTT3=
EXTT4=
EXTT5=
EXTT6=
EXTT7=
EXTT8=
EXTT9=
EXTT10=
EXTT11=
EXTT12=
PLAYORDER=
